<?xml version="1.0" encoding="UTF-8"?>
<!DOCTYPE svg PUBLIC "-//W3C//DTD SVG 1.1//EN" "http://www.w3.org/Graphics/SVG/1.1/DTD/svg11.dtd">
<!-- Creator: CorelDRAW 2020 (64-Bit) -->
<svg xmlns="http://www.w3.org/2000/svg" xml:space="preserve" width="350px" height="25px" version="1.1" style="shape-rendering:geometricPrecision; text-rendering:geometricPrecision; image-rendering:optimizeQuality; fill-rule:evenodd; clip-rule:evenodd"
viewBox="0 0 323.95 23.35"
 xmlns:xlink="http://www.w3.org/1999/xlink"
 xmlns:xodm="http://www.corel.com/coreldraw/odm/2003">
 <defs>
  <style type="text/css">
   <![CDATA[
    .fil0 {fill:#FF6600;fill-rule:nonzero}
   ]]>
  </style>
 </defs>
 <g id="Слой_x0020_1">
  <metadata id="CorelCorpID_0Corel-Layer"/>
  <path class="fil0" d="M321.31 8.29c-2.16,0 -5.65,1.12 -7.81,1.12l-113.92 0c-1.78,0 -5.83,-1.12 -7.81,-1.12 -1.41,0 -2.64,1.12 -2.64,2.63 0,1.51 1.13,2.64 2.64,2.64 2.17,0 5.65,-1.13 7.81,-1.13l113.92 0c1.79,0 5.83,1.13 7.81,1.13 1.41,0 2.64,-1.13 2.64,-2.64 0,-1.51 -1.13,-2.63 -2.64,-2.63l0 0z"/>
  <path class="fil0" d="M132.18 8.29c-2.17,0 -5.65,1.12 -7.82,1.12l-113.91 0c-1.79,0 -5.84,-1.12 -7.81,-1.12 -1.42,0 -2.64,1.12 -2.64,2.63 0,1.51 1.13,2.64 2.64,2.64 2.16,0 5.64,-1.13 7.81,-1.13l113.91 0c1.79,0 5.84,1.13 7.82,1.13 1.41,0 2.63,-1.13 2.63,-2.64 0,-1.51 -1.13,-2.63 -2.63,-2.63l0 0z"/>
  <path class="fil0" d="M175.77 23.35c-12.15,0 -18.55,-8.76 -27.78,-12.81 -2.16,-0.94 -5.55,-2.91 -5.55,-0.56 0,1.13 1.03,0.75 1.03,2.07 0,1.51 -0.28,2.54 -2.35,2.54 -2.54,0 -3.48,-1.22 -3.86,-2.92 -1.03,-4.42 2.54,-6.59 6.03,-6.59 4.42,0 9.41,3.39 11.01,4.52 5.08,3.49 9.98,7.63 15.72,10.08 1.51,0.66 3.96,1.78 5.46,1.78 1.32,0.19 2.55,1.89 0.29,1.89l0 0z"/>
  <path class="fil0" d="M144.7 0c12.14,0 18.54,8.76 27.77,12.8 2.17,0.95 5.55,2.92 5.55,0.57 0,-1.13 -1.03,-0.75 -1.03,-2.07 0,-1.51 0.28,-2.54 2.35,-2.54 2.54,0 3.49,1.22 3.86,2.91 1.04,4.43 -2.54,6.59 -6.02,6.59 -4.43,0 -9.42,-3.38 -11.02,-4.51 -5.08,-3.49 -9.98,-7.63 -15.72,-10.08 -1.51,-0.66 -3.95,-1.79 -5.46,-1.79 -1.32,-0.18 -2.54,-1.88 -0.28,-1.88l0 0z"/>
 </g>
</svg>
